<svg width="147" height="75" viewBox="0 0 147 75" fill="none" xmlns="http://www.w3.org/2000/svg">
<path fill-rule="evenodd" clip-rule="evenodd" d="M6.29931 38.8143C6.29931 45.5636 7.0162 49.5912 8.45039 50.8976C9.88422 52.1951 14.2762 52.8441 21.6256 52.8441C28.4735 52.8441 32.6501 52.4656 34.1558 51.7086C35.9127 50.8077 36.7908 48.3747 36.7908 44.41H42.2762C42.2762 50.2849 41.0661 53.9884 38.6463 55.5202C36.2262 57.0519 30.5528 57.8178 21.6256 57.8178C12.5553 57.8178 6.81895 56.7367 4.41687 54.5742C2.01479 52.4116 0.813892 47.1674 0.813892 38.8413C0.813892 30.4797 2.00596 25.2085 4.39002 23.0278C6.77407 20.8472 12.5193 19.7568 21.6256 19.7568C30.5885 19.7568 36.2711 20.5049 38.6732 22.0004C41.0753 23.4963 42.2762 27.1998 42.2762 33.1106H36.7908C36.7908 29.1459 35.9844 26.758 34.371 25.9474C32.7576 25.1364 28.5092 24.7309 21.6256 24.7309C14.2402 24.7309 9.83968 25.3706 8.42351 26.65C7.00737 27.9386 6.29931 31.9933 6.29931 38.8143ZM114.869 70.277H147V71.2029H114.869V70.277ZM0 70.277H32.1308V71.2029H0V70.277ZM111.396 72.4586C111.396 73.2736 111.173 73.8807 110.728 74.2799C110.282 74.6795 109.63 74.8791 108.771 74.8791H102.162V66.5886H108.482C109.325 66.5886 109.971 66.7905 110.421 67.196C110.87 67.6012 111.095 68.1823 111.095 68.9448C111.095 69.7779 110.786 70.3122 110.168 70.5464C110.521 70.6673 110.802 70.8689 111.011 71.1515C111.267 71.4984 111.396 71.9342 111.396 72.4586ZM109.867 68.9429C109.867 68.5614 109.77 68.2689 109.578 68.0673C109.345 67.8232 108.978 67.7023 108.472 67.7023H103.39V70.0622H108.472C108.994 70.0622 109.355 69.9716 109.56 69.7878C109.765 69.6063 109.867 69.324 109.867 68.9429ZM103.39 71.1756V73.7657H108.759C109.225 73.7657 109.576 73.6468 109.813 73.4087C110.05 73.1705 110.168 72.8579 110.168 72.4708C110.168 72.0913 110.047 71.7807 109.807 71.5386C109.566 71.2968 109.217 71.1756 108.759 71.1756H103.39ZM95.3242 75C93.6148 75 92.4192 74.8893 91.737 74.6673C91.0548 74.4453 90.6213 74.024 90.4368 73.4027C90.3084 72.9748 90.2441 72.0913 90.2441 70.752C90.2441 69.3885 90.3041 68.5051 90.4247 68.1016C90.6092 67.4724 91.0466 67.0445 91.737 66.8185C92.427 66.5929 93.623 66.4799 95.3242 66.4799C97.0339 66.4799 98.2276 66.5909 98.9059 66.8126C99.5841 67.0346 100.019 67.4602 100.212 68.0894C100.34 68.517 100.405 69.4047 100.405 70.752C100.405 72.1075 100.344 72.987 100.224 73.3905C100.04 74.0197 99.6061 74.4453 98.9239 74.6673C98.2417 74.8893 97.0418 75 95.3242 75ZM95.3242 73.8866C97.2184 73.8866 98.3341 73.7456 98.6709 73.463C99.0081 73.1787 99.1769 72.2728 99.1769 70.746C99.1769 69.211 99.0101 68.3012 98.6771 68.0169C98.3439 67.7346 97.2266 67.5933 95.3242 67.5933C93.4221 67.5933 92.3048 67.7346 91.9716 68.0169C91.6387 68.3012 91.4719 69.211 91.4719 70.746C91.4719 72.2649 91.6407 73.1685 91.9775 73.457C92.3147 73.7433 93.4303 73.8866 95.3242 73.8866ZM80.3242 66.5886H88.9319V67.7023H85.248V74.8791H84.0202V67.7023H80.3242V66.5886ZM75.0272 66.5886L79.3612 74.8791H77.9768L77.0017 73.0394H71.1267L70.1638 74.8791H68.7794L73.1134 66.5886H75.0272ZM76.4719 71.926L74.233 67.5811H73.9197L71.6805 71.926H76.4719ZM58.3781 74.8791V66.5886H65.0955C65.8258 66.5886 66.3979 66.8067 66.8111 67.2445C67.2246 67.6819 67.4311 68.3476 67.4311 69.2393C67.4311 70.1307 67.2204 70.7945 66.799 71.228C66.3776 71.6618 65.7937 71.8776 65.0477 71.8776H59.6062V74.8791H58.3781ZM59.6062 70.7642H65.0477C65.4005 70.7642 65.6817 70.6433 65.8901 70.3992C66.0988 70.1551 66.2033 69.7677 66.2033 69.2393C66.2033 68.7106 66.1008 68.3216 65.8963 68.0732C65.6915 67.8252 65.4048 67.7023 65.0355 67.7023H59.6062V70.7642ZM52.744 66.5886L57.0779 74.8791H55.6936L54.7185 73.0394H48.8435L47.8805 74.8791H46.4961L50.8301 66.5886H52.744ZM54.1886 71.926L51.9497 67.5811H51.6365L49.3972 71.926H54.1886ZM37.2502 70.746C37.2502 72.2567 37.4107 73.1586 37.7318 73.4511C38.051 73.7413 39.0359 73.8866 40.6873 73.8866C42.2182 73.8866 43.1514 73.8019 43.4882 73.6326C43.8794 73.4307 44.0763 72.8862 44.0763 71.9988H45.3041C45.3041 73.3138 45.0312 74.1429 44.4856 74.4858C43.9397 74.8287 42.6716 75 40.6814 75C38.6509 75 37.3668 74.7582 36.8288 74.274C36.2911 73.7898 36.0224 72.6158 36.0224 70.752C36.0224 68.872 36.2872 67.6901 36.817 67.2059C37.3465 66.722 38.6349 66.4799 40.6814 66.4799C42.6877 66.4799 43.9597 66.6472 44.4974 66.9819C45.0354 67.3169 45.3041 68.146 45.3041 69.4693H44.0763C44.0763 68.5815 43.8955 68.0472 43.5344 67.8657C43.1753 67.6839 42.2264 67.5933 40.6873 67.5933C39.028 67.5933 38.0408 67.7366 37.7259 68.0228C37.4088 68.3114 37.2502 69.2189 37.2502 70.746ZM145.645 1.2221H143.852L136.785 8.49607V1.2221H135.557V9.51261H137.411L144.417 2.31143V9.51261H145.645V1.2221ZM133.559 1.2221H131.765L124.698 8.49607V1.2221H123.47V9.51261H125.324L132.331 2.31143V9.51261H133.559V1.2221ZM112.563 9.51261V1.2221H119.281C120.011 1.2221 120.583 1.44018 120.996 1.87796C121.41 2.31541 121.616 2.98114 121.616 3.87284C121.616 4.7642 121.406 5.42795 120.984 5.86146C120.563 6.2953 119.979 6.51106 119.233 6.51106H113.792V9.51261H112.563ZM113.792 5.39764H119.233C119.586 5.39764 119.867 5.27678 120.075 5.03266C120.284 4.78858 120.389 4.40121 120.389 3.87284C120.389 3.34413 120.286 2.95511 120.082 2.70672C119.877 2.4587 119.59 2.33581 119.221 2.33581H113.792V5.39764ZM105.677 9.63351C103.968 9.63351 102.772 9.52281 102.09 9.30079C101.408 9.07876 100.974 8.65748 100.79 8.0362C100.661 7.60832 100.597 6.72483 100.597 5.38549C100.597 4.02206 100.657 3.13857 100.778 2.73507C100.962 2.10591 101.4 1.678 102.09 1.45203C102.78 1.22637 103.976 1.11339 105.677 1.11339C107.387 1.11339 108.581 1.22442 109.259 1.44611C109.937 1.66813 110.372 2.09372 110.565 2.72289C110.693 3.15043 110.758 4.03819 110.758 5.38549C110.758 6.74096 110.697 7.62051 110.577 8.02401C110.393 8.65317 109.959 9.07876 109.277 9.30079C108.595 9.52281 107.395 9.63351 105.677 9.63351ZM105.677 8.52012C107.572 8.52012 108.687 8.37912 109.024 8.09648C109.361 7.81222 109.53 6.90635 109.53 5.37956C109.53 3.84452 109.363 2.93467 109.03 2.65041C108.697 2.36811 107.58 2.22677 105.677 2.22677C103.775 2.22677 102.658 2.36811 102.325 2.65041C101.992 2.93467 101.825 3.84452 101.825 5.37956C101.825 6.89843 101.994 7.80199 102.331 8.09055C102.668 8.3768 103.783 8.52012 105.677 8.52012ZM90.6773 1.2221H99.285V2.33581H95.6011V9.51261H94.3733V2.33581H90.6773V1.2221ZM81.3111 5.37956C81.3111 6.89018 81.4717 7.79212 81.7928 8.08462C82.1119 8.37484 83.0968 8.52012 84.7483 8.52012C86.2791 8.52012 87.2123 8.43546 87.5491 8.26613C87.9404 8.06422 88.1373 7.51968 88.1373 6.63229H89.365C89.365 7.94726 89.0921 8.77639 88.5465 9.11931C88.0006 9.4622 86.7326 9.63351 84.7424 9.63351C82.7119 9.63351 81.4277 9.39171 80.8898 8.90749C80.3521 8.42327 80.0834 7.24927 80.0834 5.38549C80.0834 3.50554 80.3481 2.32362 80.878 1.8394C81.4074 1.35551 82.6958 1.11339 84.7424 1.11339C86.7486 1.11339 88.0206 1.28072 88.5583 1.61539C89.0963 1.95043 89.365 2.77952 89.365 4.10278H88.1373C88.1373 3.21502 87.9564 2.68072 87.5953 2.49921C87.2362 2.31736 86.2873 2.22677 84.7483 2.22677C83.089 2.22677 82.1017 2.3701 81.7869 2.65634C81.4697 2.94491 81.3111 3.8524 81.3111 5.37956ZM78.2173 1.2221H76.4237L69.357 8.49607V1.2221H68.129V9.51261H69.9829L76.9893 2.31143V9.51261H78.2173V1.2221ZM59.9427 1.2221H58.1491L51.0824 8.48388V1.2221H49.8543V9.51261H51.7086L58.7149 2.31143V9.51261H59.9427V1.2221ZM52.9845 0H56.6684V1.11339H52.9845V0ZM40.127 1.2221H48.0125V2.33581H41.3551V4.75629H47.7838V5.86971H41.3551V8.39922H48.0125V9.51261H40.127V1.2221ZM38.4658 3.49762C38.4658 2.76339 38.221 2.2067 37.7315 1.82721C37.3223 1.50473 36.7325 1.2949 35.9618 1.19805C35.5205 1.14141 34.7983 1.11339 33.795 1.11339C31.7884 1.11339 30.5164 1.28271 29.9787 1.62165C29.441 1.96063 29.172 2.79138 29.172 4.11493H30.4001C30.4001 3.22721 30.5806 2.69258 30.9417 2.51106C31.3028 2.32955 32.254 2.23896 33.795 2.23896C35.1754 2.23896 36.0942 2.31342 36.5519 2.46264C37.0093 2.61219 37.2381 2.9571 37.2381 3.49762C37.2381 4.01381 37.0654 4.36498 36.7203 4.55043C36.4635 4.68779 36.026 4.75629 35.4081 4.75629H31.6161V5.86971H35.4081C35.9939 5.86971 36.4274 5.95039 36.7082 6.1118C37.0614 6.31342 37.2381 6.67247 37.2381 7.18899C37.2381 7.72951 36.9992 8.08661 36.5218 8.25987C36.0441 8.43347 35.1351 8.52012 33.795 8.52012C32.2618 8.52012 31.327 8.43546 30.9899 8.26613C30.5967 8.06422 30.4001 7.51968 30.4001 6.63229H29.172C29.172 7.94726 29.445 8.77639 29.9908 9.11931C30.5364 9.4622 31.8044 9.63351 33.795 9.63351C35.0548 9.63351 35.9015 9.60552 36.335 9.54885C37.0736 9.45199 37.603 9.24216 37.9242 8.91968C38.2853 8.55636 38.4658 7.97956 38.4658 7.18899C38.4658 6.72089 38.3917 6.34373 38.2433 6.05712C38.0946 5.77087 37.8721 5.54689 37.5749 5.38549C37.8881 5.2 38.1149 4.97403 38.2551 4.7079C38.3957 4.44172 38.4658 4.03819 38.4658 3.49762ZM21.2629 8.39922C21.5997 8.39922 21.8829 8.3508 22.1116 8.25395C22.3403 8.15709 22.5228 7.9835 22.6594 7.7315L16.6642 1.2221H18.3494L23.3334 6.72911L26.4515 1.2221H27.848L23.9714 8.0461C23.6827 8.54645 23.3213 8.91769 22.8881 9.15555C22.4546 9.3937 21.897 9.51261 21.2148 9.51261H18.5181V8.39922H21.2629ZM3.96338 1.2221L8.22497 8.0362L12.4869 1.2221H14.6779V9.51261H13.4498V2.33581H13.209L8.60439 9.51261H7.83372L3.22909 2.33581H3.0004V9.51261H1.77233V1.2221H3.96338ZM123.91 57.8178C116.274 57.8178 110.932 57.3224 107.884 56.3312C104.837 55.34 102.901 53.4568 102.077 50.6815C101.503 48.7713 101.216 44.8247 101.216 38.8413C101.216 32.7503 101.485 28.8037 102.023 27.0015C102.847 24.1903 104.801 22.2798 107.884 21.2708C110.968 20.2615 116.31 19.7568 123.91 19.7568C131.546 19.7568 136.88 20.2526 139.909 21.2438C142.939 22.235 144.883 24.1359 145.744 26.9474C146.317 28.8577 146.604 32.8224 146.604 38.8413C146.604 44.8965 146.335 48.8253 145.797 50.6275C144.973 53.4387 143.037 55.34 139.99 56.3312C136.942 57.3224 131.583 57.8178 123.91 57.8178ZM123.91 52.8441C132.371 52.8441 137.355 52.2133 138.86 50.9517C140.366 49.6811 141.119 45.6354 141.119 38.8143C141.119 31.9574 140.375 27.8935 138.887 26.623C137.399 25.3617 132.407 24.7309 123.91 24.7309C115.413 24.7309 110.421 25.3617 108.933 26.623C107.445 27.8935 106.702 31.9574 106.702 38.8143C106.702 45.5995 107.454 49.6363 108.96 50.9246C110.466 52.2044 115.449 52.8441 123.91 52.8441ZM92.6656 46.4645C92.6656 50.1047 91.6708 52.8171 89.6809 54.6011C87.6913 56.3852 84.7781 57.2773 80.9422 57.2773H51.4182V20.2434H79.6515C83.416 20.2434 86.3021 21.1446 88.3096 22.9557C90.3172 24.7668 91.3212 27.3618 91.3212 30.7679C91.3212 34.4892 89.9407 36.8771 87.1802 37.9223C88.7579 38.4632 90.0125 39.3641 90.9447 40.6258C92.0918 42.1753 92.6656 44.1217 92.6656 46.4645ZM85.8358 30.759C85.8358 29.056 85.4056 27.7492 84.5452 26.8483C83.5055 25.758 81.8652 25.2174 79.6066 25.2174H56.9036V35.7597H79.6066C81.9369 35.7597 83.5503 35.3542 84.4645 34.5344C85.3787 33.7234 85.8358 32.462 85.8358 30.759ZM56.9036 40.7338V52.3035H80.8884C82.9678 52.3035 84.5363 51.7719 85.594 50.7085C86.6513 49.6452 87.1802 48.2485 87.1802 46.5185C87.1802 44.8247 86.6425 43.4369 85.5671 42.3558C84.4914 41.2743 82.9317 40.7338 80.8884 40.7338H56.9036Z" fill="#2B2A29"/>
</svg>
